# Blender 4.4.3
# www.blender.org
o Cube
v 0.315000 1.232000 -0.256277
v 0.256277 1.232000 -0.315000
v 0.297800 1.232000 -0.297800
v 0.256277 0.000000 -0.315000
v 0.315000 0.000000 -0.256277
v 0.297800 0.000000 -0.297800
v 0.256277 1.232000 0.315000
v 0.315000 1.232000 0.256277
v 0.297800 1.232000 0.297800
v 0.315000 0.000000 0.256277
v 0.256277 0.000000 0.315000
v 0.297800 0.000000 0.297800
v -0.256277 1.232000 -0.315000
v -0.315000 1.232000 -0.256277
v -0.297800 1.232000 -0.297800
v -0.315000 0.000000 -0.256277
v -0.256277 0.000000 -0.315000
v -0.297800 0.000000 -0.297800
v -0.315000 1.232000 0.256277
v -0.256277 1.232000 0.315000
v -0.297800 1.232000 0.297800
v -0.256277 0.000000 0.315000
v -0.315000 0.000000 0.256277
v -0.297800 0.000000 0.297800
v 0.315000 0.821333 -0.256277
v 0.256277 0.821333 -0.315000
v 0.297800 0.821333 -0.297800
v 0.256277 0.410667 -0.315000
v 0.315000 0.410667 -0.256277
v 0.297800 0.410667 -0.297800
v -0.256277 0.410667 0.315000
v -0.315000 0.410667 0.256277
v -0.297800 0.410667 0.297800
v -0.315000 0.821333 0.256277
v -0.256277 0.821333 0.315000
v -0.297800 0.821333 0.297800
v 0.256277 0.821333 0.315000
v 0.315000 0.821333 0.256277
v 0.297800 0.821333 0.297800
v 0.315000 0.410667 0.256277
v 0.256277 0.410667 0.315000
v 0.297800 0.410667 0.297800
v -0.256277 0.821333 -0.315000
v -0.315000 0.821333 -0.256277
v -0.297800 0.821333 -0.297800
v -0.315000 0.410667 -0.256277
v -0.256277 0.410667 -0.315000
v -0.297800 0.410667 -0.297800
v -0.271078 1.232000 0.262341
v 0.271078 1.232000 0.262341
v -0.271078 1.232000 -0.262341
v 0.271078 1.232000 -0.262341
v 0.262341 0.000000 -0.271078
v 0.262341 0.000000 0.271078
v -0.262341 0.000000 -0.271078
v -0.262341 0.000000 0.271078
vn -0.0000 -0.0000 -1.0000
vn -0.0000 -0.0000 1.0000
vn -1.0000 -0.0000 -0.0000
vn -0.0000 1.0000 -0.0000
vn 1.0000 -0.0000 -0.0000
vn 0.9239 -0.0000 -0.3827
vn 0.3827 -0.0000 -0.9239
vn -0.3827 -0.0000 0.9239
vn -0.9239 -0.0000 0.3827
vn 0.3827 -0.0000 0.9239
vn 0.9239 -0.0000 0.3827
vn -0.3827 -0.0000 -0.9239
vn -0.9239 -0.0000 -0.3827
vn -0.0000 -1.0000 -0.0000
vt 0.541667 0.273303
vt 0.625000 0.273303
vt 0.625000 0.476697
vt 0.541667 0.476697
vt 0.375000 0.773303
vt 0.458333 0.773303
vt 0.458333 0.976697
vt 0.375000 0.976697
vt 0.375000 0.023303
vt 0.458333 0.023303
vt 0.458333 0.226697
vt 0.375000 0.226697
vt 0.541667 0.773303
vt 0.625000 0.773303
vt 0.625000 0.976697
vt 0.541667 0.976697
vt 0.625000 0.500000
vt 0.625000 0.023303
vt 0.625000 1.000000
vt 0.375000 0.273303
vt 0.458333 0.273303
vt 0.458333 0.476697
vt 0.375000 0.476697
vt 0.375000 0.523303
vt 0.458333 0.523303
vt 0.458333 0.726697
vt 0.375000 0.726697
vt 0.541667 0.976697
vt 0.458333 0.976697
vt 0.458333 0.273303
vt 0.541667 0.273303
vt 0.541667 0.476697
vt 0.458333 0.476697
vt 0.541667 0.523303
vt 0.541667 0.726697
vt 0.458333 0.726697
vt 0.541667 0.023303
vt 0.625000 0.226697
vt 0.541667 0.226697
vt 0.458333 0.023303
vt 0.541667 0.023303
vt 0.541667 0.226697
vt 0.458333 0.226697
vt 0.375000 0.500000
vt 0.458333 0.500000
vt 0.541667 1.000000
vt 0.541667 0.000000
vt 0.625000 0.000000
vt 0.375000 0.750000
vt 0.458333 0.750000
vt 0.375000 0.250000
vt 0.458333 0.250000
vt 0.625000 0.523303
vt 0.541667 0.500000
vt 0.625000 0.500000
vt 0.458333 1.000000
vt 0.375000 1.000000
vt 0.375000 0.000000
vt 0.458333 0.000000
vt 0.541667 0.750000
vt 0.625000 0.750000
vt 0.541667 0.726697
vt 0.625000 0.726697
vt 0.541667 0.250000
vt 0.625000 0.250000
vt 0.625000 0.416667
vt 0.625000 0.583333
vt 0.625000 0.500000
vt 0.375000 0.416667
vt 0.375000 0.583333
vt 0.375000 0.500000
s 0
f 43/1/1 13/2/1 2/3/1 26/4/1
f 11/5/2 41/6/2 31/7/2 22/8/2
f 23/9/3 32/10/3 46/11/3 16/12/3
f 37/13/2 7/14/2 20/15/2 35/16/2
f 20/15/4 49/17/4 19/18/4 21/19/4
f 17/20/1 47/21/1 28/22/1 4/23/1
f 5/24/5 29/25/5 40/26/5 10/27/5
f 41/6/2 37/13/2 35/28/2 31/29/2
f 47/30/1 43/31/1 26/32/1 28/33/1
f 29/25/5 25/34/5 38/35/5 40/36/5
f 34/37/3 19/18/3 14/38/3 44/39/3
f 32/40/3 34/41/3 44/42/3 46/43/3
f 29/25/6 5/24/6 6/44/6 30/45/6
f 30/45/7 6/44/7 4/23/7 28/22/7
f 35/16/8 20/15/8 21/19/8 36/46/8
f 36/47/9 21/48/9 19/18/9 34/37/9
f 41/6/10 11/5/10 12/49/10 42/50/10
f 42/50/11 12/49/11 10/27/11 40/26/11
f 47/21/12 17/20/12 18/51/12 48/52/12
f 48/52/13 18/51/13 16/12/13 46/11/13
f 1/53/6 25/34/6 27/54/6 3/55/6
f 3/55/7 27/54/7 26/4/7 2/3/7
f 25/34/6 29/25/6 30/45/6 27/54/6
f 27/54/7 30/45/7 28/33/7 26/32/7
f 22/8/8 31/7/8 33/56/8 24/57/8
f 24/58/9 33/59/9 32/10/9 23/9/9
f 31/29/8 35/28/8 36/46/8 33/56/8
f 33/59/9 36/47/9 34/41/9 32/40/9
f 7/14/10 37/13/10 39/60/10 9/61/10
f 9/61/11 39/60/11 38/62/11 8/63/11
f 37/13/10 41/6/10 42/50/10 39/60/10
f 39/60/11 42/50/11 40/36/11 38/35/11
f 13/2/12 43/1/12 45/64/12 15/65/12
f 15/65/13 45/64/13 44/39/13 14/38/13
f 43/31/12 47/30/12 48/52/12 45/64/12
f 45/64/13 48/52/13 46/43/13 44/42/13
f 25/34/5 1/53/5 8/63/5 38/62/5
f 49/17/4 51/66/4 14/38/4 19/18/4
f 51/66/4 13/2/4 15/65/4 14/38/4
f 7/14/4 50/67/4 49/17/4 20/15/4
f 50/67/4 52/68/4 51/66/4 49/17/4
f 52/68/4 2/3/4 13/2/4 51/66/4
f 9/61/4 8/63/4 50/67/4 7/14/4
f 8/63/4 1/53/4 52/68/4 50/67/4
f 1/53/4 3/55/4 2/3/4 52/68/4
f 5/24/14 53/44/14 4/23/14 6/44/14
f 53/44/14 55/69/14 17/20/14 4/23/14
f 55/69/14 16/12/14 18/51/14 17/20/14
f 10/27/14 54/70/14 53/44/14 5/24/14
f 54/70/14 56/71/14 55/69/14 53/44/14
f 56/71/14 23/9/14 16/12/14 55/69/14
f 12/49/14 11/5/14 54/70/14 10/27/14
f 11/5/14 22/8/14 56/71/14 54/70/14
f 22/8/14 24/58/14 23/9/14 56/71/14
